<mxfile host="drawio-plugin" modified="2022-11-09T14:01:36.226Z" agent="5.0 (X11; Linux x86_64) AppleWebKit/537.36 (KHTML, like Gecko) Chrome/89.0.4389.114 Safari/537.36" etag="5C9b9Q0lIMUUE7zjCZIx" version="15.5.4" type="embed"><diagram id="FxKB8E4Ya2x4ZvYEIVxq" name="Page-1"><mxGraphModel dx="1055" dy="733" grid="1" gridSize="10" guides="1" tooltips="1" connect="1" arrows="1" fold="1" page="1" pageScale="1" pageWidth="827" pageHeight="1169" math="0" shadow="0"><root><mxCell id="0"/><mxCell id="1" parent="0"/><mxCell id="24" value="" style="aspect=fixed;perimeter=ellipsePerimeter;html=1;align=center;shadow=0;dashed=0;spacingTop=3;image;image=img/lib/active_directory/laptop_client.svg;" parent="1" vertex="1"><mxGeometry x="290" y="180" width="45" height="50" as="geometry"/></mxCell><mxCell id="40" style="edgeStyle=orthogonalEdgeStyle;curved=1;rounded=0;orthogonalLoop=1;jettySize=auto;html=1;exitX=1;exitY=0.25;exitDx=0;exitDy=0;" edge="1" parent="1" source="25"><mxGeometry relative="1" as="geometry"><mxPoint x="300" y="260" as="targetPoint"/></mxGeometry></mxCell><mxCell id="25" value="" style="aspect=fixed;perimeter=ellipsePerimeter;html=1;align=center;shadow=0;dashed=0;spacingTop=3;image;image=img/lib/active_directory/laptop_client.svg;" parent="1" vertex="1"><mxGeometry x="140" y="290" width="45" height="50" as="geometry"/></mxCell><mxCell id="41" style="edgeStyle=orthogonalEdgeStyle;curved=1;rounded=0;orthogonalLoop=1;jettySize=auto;html=1;exitX=0.75;exitY=0;exitDx=0;exitDy=0;" edge="1" parent="1" source="27" target="30"><mxGeometry relative="1" as="geometry"/></mxCell><mxCell id="49" style="edgeStyle=entityRelationEdgeStyle;rounded=0;orthogonalLoop=1;jettySize=auto;html=1;exitX=0.5;exitY=1;exitDx=0;exitDy=0;fillColor=#60a917;strokeColor=#2D7600;" edge="1" parent="1" source="27" target="34"><mxGeometry relative="1" as="geometry"/></mxCell><mxCell id="27" value="" style="aspect=fixed;perimeter=ellipsePerimeter;html=1;align=center;shadow=0;dashed=0;spacingTop=3;image;image=img/lib/active_directory/laptop_client.svg;" parent="1" vertex="1"><mxGeometry x="330" y="330" width="45" height="50" as="geometry"/></mxCell><mxCell id="30" value="resource holder" style="text;html=1;align=center;verticalAlign=middle;resizable=0;points=[];autosize=1;strokeColor=none;fillColor=none;" parent="1" vertex="1"><mxGeometry x="250" y="230" width="100" height="20" as="geometry"/></mxCell><mxCell id="34" value="resource Hodler" style="text;html=1;align=center;verticalAlign=middle;resizable=0;points=[];autosize=1;strokeColor=none;fillColor=none;" parent="1" vertex="1"><mxGeometry x="710" y="390" width="100" height="20" as="geometry"/></mxCell><mxCell id="43" value="" style="aspect=fixed;perimeter=ellipsePerimeter;html=1;align=center;shadow=0;dashed=0;spacingTop=3;image;image=img/lib/active_directory/laptop_client.svg;" vertex="1" parent="1"><mxGeometry x="690" y="190" width="45" height="50" as="geometry"/></mxCell><mxCell id="44" style="edgeStyle=orthogonalEdgeStyle;curved=1;rounded=0;orthogonalLoop=1;jettySize=auto;html=1;exitX=1;exitY=0.25;exitDx=0;exitDy=0;" edge="1" parent="1" source="45"><mxGeometry relative="1" as="geometry"><mxPoint x="700" y="270" as="targetPoint"/></mxGeometry></mxCell><mxCell id="45" value="" style="aspect=fixed;perimeter=ellipsePerimeter;html=1;align=center;shadow=0;dashed=0;spacingTop=3;image;image=img/lib/active_directory/laptop_client.svg;" vertex="1" parent="1"><mxGeometry x="540" y="300" width="45" height="50" as="geometry"/></mxCell><mxCell id="47" value="" style="aspect=fixed;perimeter=ellipsePerimeter;html=1;align=center;shadow=0;dashed=0;spacingTop=3;image;image=img/lib/active_directory/laptop_client.svg;" vertex="1" parent="1"><mxGeometry x="730" y="340" width="45" height="50" as="geometry"/></mxCell><mxCell id="48" value="resource holder" style="text;html=1;align=center;verticalAlign=middle;resizable=0;points=[];autosize=1;strokeColor=none;fillColor=none;" vertex="1" parent="1"><mxGeometry x="650" y="240" width="100" height="20" as="geometry"/></mxCell><mxCell id="51" value="downloaded" style="text;html=1;align=center;verticalAlign=middle;resizable=0;points=[];autosize=1;strokeColor=none;fillColor=none;" vertex="1" parent="1"><mxGeometry x="490" y="370" width="80" height="20" as="geometry"/></mxCell><mxCell id="59" style="edgeStyle=orthogonalEdgeStyle;rounded=0;orthogonalLoop=1;jettySize=auto;html=1;exitX=1;exitY=0.25;exitDx=0;exitDy=0;curved=1;entryX=0.52;entryY=1.05;entryDx=0;entryDy=0;entryPerimeter=0;" edge="1" parent="1" source="55" target="48"><mxGeometry relative="1" as="geometry"><mxPoint x="720" y="290" as="targetPoint"/></mxGeometry></mxCell><mxCell id="60" style="edgeStyle=orthogonalEdgeStyle;curved=1;rounded=0;orthogonalLoop=1;jettySize=auto;html=1;exitX=1;exitY=0.75;exitDx=0;exitDy=0;entryX=0.36;entryY=1.1;entryDx=0;entryDy=0;entryPerimeter=0;" edge="1" parent="1" source="55" target="34"><mxGeometry relative="1" as="geometry"/></mxCell><mxCell id="55" value="" style="aspect=fixed;perimeter=ellipsePerimeter;html=1;align=center;shadow=0;dashed=0;spacingTop=3;image;image=img/lib/active_directory/laptop_client.svg;" vertex="1" parent="1"><mxGeometry x="520" y="420" width="45" height="50" as="geometry"/></mxCell><mxCell id="64" style="edgeStyle=orthogonalEdgeStyle;curved=1;rounded=0;orthogonalLoop=1;jettySize=auto;html=1;exitX=0.75;exitY=0;exitDx=0;exitDy=0;" edge="1" parent="1" source="56" target="48"><mxGeometry relative="1" as="geometry"/></mxCell><mxCell id="65" style="edgeStyle=orthogonalEdgeStyle;curved=1;rounded=0;orthogonalLoop=1;jettySize=auto;html=1;exitX=1;exitY=0.5;exitDx=0;exitDy=0;entryX=0.54;entryY=1;entryDx=0;entryDy=0;entryPerimeter=0;" edge="1" parent="1" source="56" target="34"><mxGeometry relative="1" as="geometry"/></mxCell><mxCell id="56" value="" style="aspect=fixed;perimeter=ellipsePerimeter;html=1;align=center;shadow=0;dashed=0;spacingTop=3;image;image=img/lib/active_directory/laptop_client.svg;" vertex="1" parent="1"><mxGeometry x="677.5" y="490" width="45" height="50" as="geometry"/></mxCell><mxCell id="61" style="edgeStyle=orthogonalEdgeStyle;curved=1;rounded=0;orthogonalLoop=1;jettySize=auto;html=1;exitX=1;exitY=0.25;exitDx=0;exitDy=0;entryX=0.67;entryY=0.95;entryDx=0;entryDy=0;entryPerimeter=0;" edge="1" parent="1" source="57" target="48"><mxGeometry relative="1" as="geometry"/></mxCell><mxCell id="63" style="edgeStyle=orthogonalEdgeStyle;curved=1;rounded=0;orthogonalLoop=1;jettySize=auto;html=1;exitX=1;exitY=0.5;exitDx=0;exitDy=0;entryX=0.28;entryY=0.95;entryDx=0;entryDy=0;entryPerimeter=0;" edge="1" parent="1" source="57" target="34"><mxGeometry relative="1" as="geometry"/></mxCell><mxCell id="57" value="" style="aspect=fixed;perimeter=ellipsePerimeter;html=1;align=center;shadow=0;dashed=0;spacingTop=3;image;image=img/lib/active_directory/laptop_client.svg;" vertex="1" parent="1"><mxGeometry x="605" y="470" width="45" height="50" as="geometry"/></mxCell><mxCell id="67" value="" style="swimlane;startSize=0;" vertex="1" parent="1"><mxGeometry x="110" y="150" width="300" height="270" as="geometry"/></mxCell><mxCell id="68" value="" style="swimlane;startSize=0;" vertex="1" parent="1"><mxGeometry x="500" y="170" width="320" height="400" as="geometry"/></mxCell></root></mxGraphModel></diagram></mxfile>